OpenSim_Sub09_CSBaseline_LCS.mot
version=1
nRows=44
nColumns=11
inDegrees=no
endheader
time	Bot_Shank	2nd_Bot_Shank	2nd_Top_Shank	Top_Shank	Bot_Thigh	Med_Thigh	Top_Thigh	BNOx	BNOy	BNOZ
43.80000000	10404.87140815	10399.26741247	11216.81956330	10823.47900428	13259.05295773	14305.23591295	14908.95653562	157.18905172	-72.08502370	-166.04517000
43.81000000	10403.26836766	10399.15179959	11214.75475900	10823.37062627	13246.53287794	14275.81890826	14897.83597854	159.59023423	-72.98836196	-167.62796173
43.82000000	10401.66490042	10399.06157454	11212.63654488	10821.56734815	13230.80476566	14247.52698971	14884.99988177	161.91283676	-73.72412424	-164.57915914
43.83000000	10400.24554022	10399.00610066	11210.44774269	10817.24094104	13211.37399870	14221.02649171	14870.21241203	164.13112478	-74.28816375	-155.97057222
43.84000000	10399.17464763	10398.99334985	11208.18168873	10809.70550636	13187.88827593	14196.93873405	14853.32668475	166.22484917	-74.67660871	-141.05406348
43.85000000	10398.46749047	10399.02101039	11205.90942814	10799.32705545	13161.04713756	14175.55235047	14834.85320202	168.21430158	-74.88761977	-120.41219600
43.86000000	10398.07251272	10399.08216140	11203.73683542	10786.94306883	13132.02156219	14157.00686379	14815.59710857	170.13794410	-74.92026851	-95.22395681
43.87000000	10397.93784319	10399.16986027	11201.76994935	10773.39325091	13101.98475221	14141.44109349	14796.36493897	172.03432456	-74.77363080	-66.67114627
43.88000000	10398.01161066	10399.27716438	11200.11480871	10759.51730612	13072.10991001	14128.99385906	14777.96322778	173.94199077	-74.44678252	-35.93556472
43.89000000	10398.24194392	10399.39713113	11198.87745228	10746.15493888	13043.57023796	14119.80397998	14761.19850955	175.89949056	-73.93879956	-4.19901253
43.90000000	10398.57697177	10399.52281790	11198.16391884	10734.14585360	13017.53893845	14114.01027573	14746.87731885	177.94537174	-73.24875778	27.35670995
43.91000000	10398.96482300	10399.64728208	11198.08024718	10724.32975470	12995.18921385	14111.75156579	14735.80619023	180.11818214	-72.37573306	57.54980238
43.92000000	10399.35362639	10399.76358105	11198.73247607	10717.54634661	12977.69426656	14113.16666965	14728.79165826	182.45646957	-71.31880129	85.19846440
43.93000000	10399.69151075	10399.86477220	11200.22664431	10714.63533375	12966.22729894	14118.39440678	14726.64025750	184.99878185	-70.07703833	109.12089566
43.94000000	10399.92660486	10399.94391291	11202.66879066	10716.43642052	12961.96151339	14127.57359666	14730.15852251	187.78366680	-68.64952008	128.13529580
43.95000000	10400.00703751	10399.99406058	11206.16495391	10723.78931136	12966.07011228	14140.84305879	14740.15298785	190.84967224	-67.03532239	141.05986447
43.96000000	10399.89354972	10400.01026036	11210.76331710	10737.24839902	12979.22810143	14158.12727177	14757.07092153	194.21211449	-65.24633717	146.98374528
43.97000000	10399.64009465	10400.00224821	11216.08447316	10755.25944485	12998.42850267	14177.76660123	14778.70438728	197.71461453	-63.38917465	146.99852705
43.98000000	10399.34240346	10399.98634461	11221.55736788	10775.32311532	13019.01406170	14197.39140869	14801.65537837	201.12383898	-61.61289810	143.09330045
43.99000000	10399.09640435	10399.97890104	11226.61004304	10794.93561893	13036.31973991	14214.62870656	14822.52027457	204.20609148	-60.06677105	137.26138967
44.00000000	10398.99802553	10399.99626903	11230.67054043	10811.59316416	13045.68049868	14227.10550729	14837.89545561	206.72767565	-58.90005704	131.49611890
44.01000000	10399.12106276	10400.05041434	11233.26938024	10823.20209662	13043.35271319	14232.85278793	14844.94854839	208.49690891	-58.23378032	127.51126912
44.02000000	10399.41960223	10400.12958119	11234.49136573	10829.88710300	13030.57648231	14232.08648096	14843.93692942	209.54935191	-58.03622525	125.50863395
44.03000000	10399.80744236	10400.21403042	11234.60784177	10832.51944331	13010.26915608	14225.75785642	14836.15781742	209.99704305	-58.22427218	125.18115402
44.04000000	10400.19835124	10400.28401686	11233.89029383	10831.97094016	12985.34934848	14214.81873846	14822.90921469	209.95207836	-58.71476274	126.22138653
44.05000000	10400.50609694	10400.31979533	11232.61020736	10829.11341618	12958.73567350	14200.22095124	14805.48912353	209.52655388	-59.42453856	128.32188863
44.06000000	10400.64444753	10400.30162067	11231.03906780	10824.81869396	12933.34674512	14182.91631892	14785.19554627	208.83256564	-60.27044128	131.17521753
44.07000000	10400.52717110	10400.20974769	11229.44836062	10819.95859614	12912.10117732	14163.85666565	14763.32648521	207.98220967	-61.16931252	134.47393038
44.08000000	10400.06803571	10400.02443123	11228.10957126	10815.40494533	12897.91758408	14143.99381560	14741.17994265	207.08758201	-62.03799390	137.91058439
44.09000000	10399.21135678	10399.73356057	11227.25179789	10811.90646571	12893.19198679	14124.30180219	14719.98674102	206.24554340	-62.80474892	141.21104272
44.10000000	10398.06667350	10399.36631821	11226.87487511	10809.54606932	12897.49381884	14105.87478389	14700.61434156	205.47055028	-63.45961935	144.28131342
44.11000000	10396.79913044	10398.96578365	11226.90147986	10808.18259192	12909.44123741	14089.84734677	14683.80791782	204.74932626	-64.01343820	147.08803151
44.12000000	10395.57391407	10398.57504688	11227.25423091	10807.67470040	12927.65168278	14077.35410734	14670.31255121	204.06857404	-64.47705414	149.59787770
44.13000000	10394.55621084	10398.23719791	11227.85574706	10807.88106166	12950.74259525	14069.52968213	14660.87332314	203.41499634	-64.86131585	151.77753270
44.14000000	10393.91120722	10397.99532672	11228.62864709	10808.66034261	12977.33141512	14067.50868764	14656.23531503	202.77529586	-65.17707200	153.59367722
44.15000000	10393.80408969	10397.89252329	11229.49554979	10809.87121012	13006.03558268	14072.42574041	14657.14360827	202.13617533	-65.43517126	155.01299197
44.16000000	10394.40004470	10397.97187764	11230.37907395	10811.37233112	13035.47253824	14085.41545694	14664.34328427	201.48433745	-65.64646232	156.00215765
44.17000000	10395.86425873	10398.27647974	11231.20183835	10813.02237248	13064.25972210	14107.61245377	14678.57942445	200.80648493	-65.82179384	156.52785499
44.18000000	10398.36191823	10398.84941958	11231.88646178	10814.68000111	13091.01457454	14140.15134740	14700.59711021	200.08932048	-65.97201449	156.55676468
44.19000000	10402.01220056	10399.72159174	11232.36519731	10816.20945085	13114.43310155	14183.72717544	14730.83020573	199.32233644	-66.10694499	156.09147557
44.20000000	10406.59424687	10400.83375890	11232.64150145	10817.51609870	13133.79195872	14235.78621252	14767.41248532	198.51564222	-66.22880876	155.39996011
44.21000000	10411.73479311	10402.08628640	11232.75074427	10818.52376216	13148.62805045	14292.31862807	14807.44681620	197.68858784	-66.33642410	154.86913641
44.22000000	10417.05985633	10403.37934903	11232.72844638	10819.15634569	13158.47950876	14349.30772312	14848.03120283	196.86056694	-66.42859325	154.88648370
44.23000000	10422.19545357	10404.61312155	11232.61012840	10819.33775377	13162.88446566	14402.73679869	14886.26364966	196.05097314	-66.50411842	155.83948116
